<svg width="512" height="512" viewBox="0 0 512 512" fill="none" xmlns="http://www.w3.org/2000/svg">
<path d="M255.661 112C177.721 112 97.771 157.11 34.831 247.33C33.0344 249.934 32.0499 253.011 32.0018 256.174C31.9538 259.337 32.8443 262.443 34.561 265.1C82.921 340.8 161.801 400 255.661 400C348.501 400 429.001 340.62 477.451 264.75C479.127 262.145 480.019 259.113 480.019 256.015C480.019 252.917 479.127 249.885 477.451 247.28C428.891 172.28 347.801 112 255.661 112Z" stroke="black" stroke-width="32" stroke-linecap="round" stroke-linejoin="round"/>
<path d="M256 336C300.183 336 336 300.183 336 256C336 211.817 300.183 176 256 176C211.817 176 176 211.817 176 256C176 300.183 211.817 336 256 336Z" stroke="black" stroke-width="32" stroke-miterlimit="10"/>
</svg>
