<svg width="512" height="512" viewBox="0 0 512 512" fill="none" xmlns="http://www.w3.org/2000/svg">
<path d="M358.62 129.28L86.49 402.08L70 442L109.92 425.51L382.72 153.38L358.62 129.28ZM413.07 74.8402L401.28 86.6202L425.38 110.72L437.17 98.9302C440.264 95.8344 442.001 91.6368 442.001 87.2602C442.001 82.8836 440.264 78.6861 437.17 75.5902L436.42 74.8402C434.887 73.3069 433.067 72.0907 431.064 71.2608C429.06 70.431 426.913 70.0039 424.745 70.0039C422.577 70.0039 420.43 70.431 418.426 71.2608C416.423 72.0907 414.603 73.3069 413.07 74.8402Z" stroke="black" stroke-width="44" stroke-linecap="round" stroke-linejoin="round"/>
</svg>
