<svg width="512" height="512" viewBox="0 0 512 512" fill="none" xmlns="http://www.w3.org/2000/svg">
<path d="M256 160C291.346 160 320 131.346 320 96C320 60.6538 291.346 32 256 32C220.654 32 192 60.6538 192 96C192 131.346 220.654 160 256 160Z" stroke="black" stroke-width="32" stroke-linecap="round" stroke-linejoin="round"/>
<path d="M272 164C272 161.613 271.052 159.324 269.364 157.636C267.676 155.948 265.387 155 263 155H249C246.613 155 244.324 155.948 242.636 157.636C240.948 159.324 240 161.613 240 164V457.56C240.002 461.811 240.848 466.019 242.49 469.94L252.56 493.94C252.897 494.558 253.395 495.073 254 495.432C254.605 495.791 255.296 495.98 256 495.98C256.704 495.98 257.395 495.791 258 495.432C258.605 495.073 259.103 494.558 259.44 493.94L269.51 469.94C271.152 466.019 271.998 461.811 272 457.56V164Z" fill="black"/>
<path d="M280 96C293.255 96 304 85.2548 304 72C304 58.7452 293.255 48 280 48C266.745 48 256 58.7452 256 72C256 85.2548 266.745 96 280 96Z" fill="black"/>
</svg>
